# 3ds Max Wavefront OBJ Exporter v0.99 - (c)2007 guruware
# File Created: 01.04.2026 19:05:45

mtllib columna_circulo.mtl

#
# object Cylinder001
#

v  -0.0039 0.0000 0.0260
v  9.3931 0.0000 -3.3942
v  9.9961 0.0000 0.0260
v  7.6566 0.0000 -6.4019
v  4.9961 0.0000 -8.6343
v  1.7326 0.0000 -9.8221
v  -1.7403 0.0000 -9.8221
v  -5.0039 0.0000 -8.6343
v  -7.6643 0.0000 -6.4019
v  -9.4008 0.0000 -3.3942
v  -10.0039 0.0000 0.0260
v  -9.4008 0.0000 3.4462
v  -7.6643 0.0000 6.4539
v  -5.0039 0.0000 8.6862
v  -1.7404 0.0000 9.8741
v  1.7326 0.0000 9.8741
v  4.9961 0.0000 8.6862
v  7.6566 0.0000 6.4539
v  9.3931 0.0000 3.4462
v  9.3931 8.0000 -3.3942
v  9.9961 8.0000 0.0260
v  7.6566 8.0000 -6.4019
v  4.9961 8.0000 -8.6343
v  1.7326 8.0000 -9.8221
v  -1.7403 8.0000 -9.8221
v  -5.0039 8.0000 -8.6343
v  -7.6643 8.0000 -6.4019
v  -9.4008 8.0000 -3.3942
v  -10.0039 8.0000 0.0260
v  -9.4008 8.0000 3.4462
v  -7.6643 8.0000 6.4539
v  -5.0039 8.0000 8.6862
v  -1.7404 8.0000 9.8741
v  1.7326 8.0000 9.8741
v  4.9961 8.0000 8.6862
v  7.6566 8.0000 6.4539
v  9.3931 8.0000 3.4462
v  9.3931 16.0000 -3.3942
v  9.9961 16.0000 0.0260
v  7.6566 16.0000 -6.4019
v  4.9961 16.0000 -8.6343
v  1.7326 16.0000 -9.8221
v  -1.7403 16.0000 -9.8221
v  -5.0039 16.0000 -8.6343
v  -7.6643 16.0000 -6.4019
v  -9.4008 16.0000 -3.3942
v  -10.0039 16.0000 0.0260
v  -9.4008 16.0000 3.4462
v  -7.6643 16.0000 6.4539
v  -5.0039 16.0000 8.6862
v  -1.7404 16.0000 9.8741
v  1.7326 16.0000 9.8741
v  4.9961 16.0000 8.6862
v  7.6566 16.0000 6.4539
v  9.3931 16.0000 3.4462
v  9.3931 24.0000 -3.3942
v  9.9961 24.0000 0.0260
v  7.6566 24.0000 -6.4019
v  4.9961 24.0000 -8.6343
v  1.7326 24.0000 -9.8221
v  -1.7403 24.0000 -9.8221
v  -5.0039 24.0000 -8.6343
v  -7.6643 24.0000 -6.4019
v  -9.4008 24.0000 -3.3942
v  -10.0039 24.0000 0.0260
v  -9.4008 24.0000 3.4462
v  -7.6643 24.0000 6.4539
v  -5.0039 24.0000 8.6862
v  -1.7404 24.0000 9.8741
v  1.7326 24.0000 9.8741
v  4.9961 24.0000 8.6862
v  7.6566 24.0000 6.4539
v  9.3931 24.0000 3.4462
v  9.3931 32.0000 -3.3942
v  9.9961 32.0000 0.0260
v  7.6566 32.0000 -6.4019
v  4.9961 32.0000 -8.6343
v  1.7326 32.0000 -9.8221
v  -1.7403 32.0000 -9.8221
v  -5.0039 32.0000 -8.6343
v  -7.6643 32.0000 -6.4019
v  -9.4008 32.0000 -3.3942
v  -10.0039 32.0000 0.0260
v  -9.4008 32.0000 3.4462
v  -7.6643 32.0000 6.4539
v  -5.0039 32.0000 8.6862
v  -1.7404 32.0000 9.8741
v  1.7326 32.0000 9.8741
v  4.9961 32.0000 8.6862
v  7.6566 32.0000 6.4539
v  9.3931 32.0000 3.4462
v  9.3931 40.0000 -3.3942
v  9.9961 40.0000 0.0260
v  7.6566 40.0000 -6.4019
v  4.9961 40.0000 -8.6343
v  1.7326 40.0000 -9.8221
v  -1.7403 40.0000 -9.8221
v  -5.0039 40.0000 -8.6343
v  -7.6643 40.0000 -6.4019
v  -9.4008 40.0000 -3.3942
v  -10.0039 40.0000 0.0260
v  -9.4008 40.0000 3.4462
v  -7.6643 40.0000 6.4539
v  -5.0039 40.0000 8.6862
v  -1.7404 40.0000 9.8741
v  1.7326 40.0000 9.8741
v  4.9961 40.0000 8.6862
v  7.6566 40.0000 6.4539
v  9.3931 40.0000 3.4462
v  -0.0039 40.0000 0.0260
# 110 vertices

vn 0.0000 -1.0000 -0.0000
vn 1.0000 0.0000 0.0000
vn 0.9397 0.0000 -0.3420
vn 0.7660 0.0000 -0.6428
vn 0.5000 0.0000 -0.8660
vn 0.1736 0.0000 -0.9848
vn -0.1736 0.0000 -0.9848
vn -0.5000 0.0000 -0.8660
vn -0.7660 0.0000 -0.6428
vn -0.9397 0.0000 -0.3420
vn -1.0000 0.0000 -0.0000
vn -0.9397 0.0000 0.3420
vn -0.7660 0.0000 0.6428
vn -0.5000 0.0000 0.8660
vn -0.1736 0.0000 0.9848
vn 0.1736 0.0000 0.9848
vn 0.5000 0.0000 0.8660
vn 0.7660 0.0000 0.6428
vn 0.9397 0.0000 0.3420
vn 0.0000 1.0000 -0.0000
# 20 vertex normals

vt 0.5000 0.5000 -0.2500
vt 0.3290 0.9698 -0.2500
vt 0.5000 1.0000 -0.2500
vt 0.1786 0.8830 -0.2500
vt 0.0670 0.7500 -0.2500
vt 0.0076 0.5868 -0.2500
vt 0.0076 0.4132 -0.2500
vt 0.0670 0.2500 -0.2500
vt 0.1786 0.1170 -0.2500
vt 0.3290 0.0302 -0.2500
vt 0.5000 -0.0000 -0.2500
vt 0.6710 0.0302 -0.2500
vt 0.8214 0.1170 -0.2500
vt 0.9330 0.2500 -0.2500
vt 0.9924 0.4132 -0.2500
vt 0.9924 0.5868 -0.2500
vt 0.9330 0.7500 -0.2500
vt 0.8214 0.8830 -0.2500
vt 0.6710 0.9698 -0.2500
vt 0.7500 0.0000 1.0000
vt 0.8056 0.2000 1.0000
vt 0.7500 0.2000 1.0000
vt 0.8056 0.0000 1.0000
vt 0.8611 0.2000 1.0000
vt 0.8611 0.0000 1.0000
vt 0.9167 0.2000 1.0000
vt 0.9167 0.0000 1.0000
vt 0.9722 0.2000 1.0000
vt 0.9722 0.0000 1.0000
vt -0.0278 0.0000 1.0000
vt 0.0278 0.2000 1.0000
vt -0.0278 0.2000 1.0000
vt 0.0278 0.0000 1.0000
vt 0.0833 0.2000 1.0000
vt 0.0833 0.0000 1.0000
vt 0.1389 0.2000 1.0000
vt 0.1389 0.0000 1.0000
vt 0.1944 0.2000 1.0000
vt 0.1944 0.0000 1.0000
vt 0.2500 0.2000 1.0000
vt 0.2500 0.0000 1.0000
vt 0.3056 0.2000 1.0000
vt 0.3056 0.0000 1.0000
vt 0.3611 0.2000 1.0000
vt 0.3611 0.0000 1.0000
vt 0.4167 0.2000 1.0000
vt 0.4167 0.0000 1.0000
vt 0.4722 0.2000 1.0000
vt 0.4722 0.0000 1.0000
vt 0.5278 0.2000 1.0000
vt 0.5278 0.0000 1.0000
vt 0.5833 0.2000 1.0000
vt 0.5833 0.0000 1.0000
vt 0.6389 0.2000 1.0000
vt 0.6389 0.0000 1.0000
vt 0.6944 0.2000 1.0000
vt 0.6944 0.0000 1.0000
vt 0.8056 0.4000 1.0000
vt 0.7500 0.4000 1.0000
vt 0.8611 0.4000 1.0000
vt 0.9167 0.4000 1.0000
vt 0.9722 0.4000 1.0000
vt 0.0278 0.4000 1.0000
vt -0.0278 0.4000 1.0000
vt 0.0833 0.4000 1.0000
vt 0.1389 0.4000 1.0000
vt 0.1944 0.4000 1.0000
vt 0.2500 0.4000 1.0000
vt 0.3056 0.4000 1.0000
vt 0.3611 0.4000 1.0000
vt 0.4167 0.4000 1.0000
vt 0.4722 0.4000 1.0000
vt 0.5278 0.4000 1.0000
vt 0.5833 0.4000 1.0000
vt 0.6389 0.4000 1.0000
vt 0.6944 0.4000 1.0000
vt 0.8056 0.6000 1.0000
vt 0.7500 0.6000 1.0000
vt 0.8611 0.6000 1.0000
vt 0.9167 0.6000 1.0000
vt 0.9722 0.6000 1.0000
vt 0.0278 0.6000 1.0000
vt -0.0278 0.6000 1.0000
vt 0.0833 0.6000 1.0000
vt 0.1389 0.6000 1.0000
vt 0.1944 0.6000 1.0000
vt 0.2500 0.6000 1.0000
vt 0.3056 0.6000 1.0000
vt 0.3611 0.6000 1.0000
vt 0.4167 0.6000 1.0000
vt 0.4722 0.6000 1.0000
vt 0.5278 0.6000 1.0000
vt 0.5833 0.6000 1.0000
vt 0.6389 0.6000 1.0000
vt 0.6944 0.6000 1.0000
vt 0.8056 0.8000 1.0000
vt 0.7500 0.8000 1.0000
vt 0.8611 0.8000 1.0000
vt 0.9167 0.8000 1.0000
vt 0.9722 0.8000 1.0000
vt 0.0278 0.8000 1.0000
vt -0.0278 0.8000 1.0000
vt 0.0833 0.8000 1.0000
vt 0.1389 0.8000 1.0000
vt 0.1944 0.8000 1.0000
vt 0.2500 0.8000 1.0000
vt 0.3056 0.8000 1.0000
vt 0.3611 0.8000 1.0000
vt 0.4167 0.8000 1.0000
vt 0.4722 0.8000 1.0000
vt 0.5278 0.8000 1.0000
vt 0.5833 0.8000 1.0000
vt 0.6389 0.8000 1.0000
vt 0.6944 0.8000 1.0000
vt 0.8056 1.0000 1.0000
vt 0.7500 1.0000 1.0000
vt 0.8611 1.0000 1.0000
vt 0.9167 1.0000 1.0000
vt 0.9722 1.0000 1.0000
vt 0.0278 1.0000 1.0000
vt -0.0278 1.0000 1.0000
vt 0.0833 1.0000 1.0000
vt 0.1389 1.0000 1.0000
vt 0.1944 1.0000 1.0000
vt 0.2500 1.0000 1.0000
vt 0.3056 1.0000 1.0000
vt 0.3611 1.0000 1.0000
vt 0.4167 1.0000 1.0000
vt 0.4722 1.0000 1.0000
vt 0.5278 1.0000 1.0000
vt 0.5833 1.0000 1.0000
vt 0.6389 1.0000 1.0000
vt 0.6944 1.0000 1.0000
vt 0.5000 0.5000 0.2500
vt 0.5000 1.0000 0.2500
vt 0.3290 0.9698 0.2500
vt 0.1786 0.8830 0.2500
vt 0.0670 0.7500 0.2500
vt 0.0076 0.5868 0.2500
vt 0.0076 0.4132 0.2500
vt 0.0670 0.2500 0.2500
vt 0.1786 0.1170 0.2500
vt 0.3290 0.0302 0.2500
vt 0.5000 -0.0000 0.2500
vt 0.6710 0.0302 0.2500
vt 0.8214 0.1170 0.2500
vt 0.9330 0.2500 0.2500
vt 0.9924 0.4132 0.2500
vt 0.9924 0.5868 0.2500
vt 0.9330 0.7500 0.2500
vt 0.8214 0.8830 0.2500
vt 0.6710 0.9698 0.2500
# 152 texture coords

o Cylinder001
g Cylinder001
usemtl wire_134213102
s 1
f 1/1/1 2/2/1 3/3/1 
f 1/1/1 4/4/1 2/2/1 
f 1/1/1 5/5/1 4/4/1 
f 1/1/1 6/6/1 5/5/1 
f 1/1/1 7/7/1 6/6/1 
f 1/1/1 8/8/1 7/7/1 
f 1/1/1 9/9/1 8/8/1 
f 1/1/1 10/10/1 9/9/1 
f 1/1/1 11/11/1 10/10/1 
f 1/1/1 12/12/1 11/11/1 
f 1/1/1 13/13/1 12/12/1 
f 1/1/1 14/14/1 13/13/1 
f 1/1/1 15/15/1 14/14/1 
f 1/1/1 16/16/1 15/15/1 
f 1/1/1 17/17/1 16/16/1 
f 1/1/1 18/18/1 17/17/1 
f 1/1/1 19/19/1 18/18/1 
f 1/1/1 3/3/1 19/19/1 
s 8
f 3/20/2 20/21/3 21/22/2 
f 3/20/2 2/23/3 20/21/3 
f 2/23/3 22/24/4 20/21/3 
f 2/23/3 4/25/4 22/24/4 
f 4/25/4 23/26/5 22/24/4 
f 4/25/4 5/27/5 23/26/5 
f 5/27/5 24/28/6 23/26/5 
f 5/27/5 6/29/6 24/28/6 
f 6/30/6 25/31/7 24/32/6 
f 6/30/6 7/33/7 25/31/7 
f 7/33/7 26/34/8 25/31/7 
f 7/33/7 8/35/8 26/34/8 
f 8/35/8 27/36/9 26/34/8 
f 8/35/8 9/37/9 27/36/9 
f 9/37/9 28/38/10 27/36/9 
f 9/37/9 10/39/10 28/38/10 
f 10/39/10 29/40/11 28/38/10 
f 10/39/10 11/41/11 29/40/11 
f 11/41/11 30/42/12 29/40/11 
f 11/41/11 12/43/12 30/42/12 
f 12/43/12 31/44/13 30/42/12 
f 12/43/12 13/45/13 31/44/13 
f 13/45/13 32/46/14 31/44/13 
f 13/45/13 14/47/14 32/46/14 
f 14/47/14 33/48/15 32/46/14 
f 14/47/14 15/49/15 33/48/15 
f 15/49/15 34/50/16 33/48/15 
f 15/49/15 16/51/16 34/50/16 
f 16/51/16 35/52/17 34/50/16 
f 16/51/16 17/53/17 35/52/17 
f 17/53/17 36/54/18 35/52/17 
f 17/53/17 18/55/18 36/54/18 
f 18/55/18 37/56/19 36/54/18 
f 18/55/18 19/57/19 37/56/19 
f 19/57/19 21/22/2 37/56/19 
f 19/57/19 3/20/2 21/22/2 
f 21/22/2 38/58/3 39/59/2 
f 21/22/2 20/21/3 38/58/3 
f 20/21/3 40/60/4 38/58/3 
f 20/21/3 22/24/4 40/60/4 
f 22/24/4 41/61/5 40/60/4 
f 22/24/4 23/26/5 41/61/5 
f 23/26/5 42/62/6 41/61/5 
f 23/26/5 24/28/6 42/62/6 
f 24/32/6 43/63/7 42/64/6 
f 24/32/6 25/31/7 43/63/7 
f 25/31/7 44/65/8 43/63/7 
f 25/31/7 26/34/8 44/65/8 
f 26/34/8 45/66/9 44/65/8 
f 26/34/8 27/36/9 45/66/9 
f 27/36/9 46/67/10 45/66/9 
f 27/36/9 28/38/10 46/67/10 
f 28/38/10 47/68/11 46/67/10 
f 28/38/10 29/40/11 47/68/11 
f 29/40/11 48/69/12 47/68/11 
f 29/40/11 30/42/12 48/69/12 
f 30/42/12 49/70/13 48/69/12 
f 30/42/12 31/44/13 49/70/13 
f 31/44/13 50/71/14 49/70/13 
f 31/44/13 32/46/14 50/71/14 
f 32/46/14 51/72/15 50/71/14 
f 32/46/14 33/48/15 51/72/15 
f 33/48/15 52/73/16 51/72/15 
f 33/48/15 34/50/16 52/73/16 
f 34/50/16 53/74/17 52/73/16 
f 34/50/16 35/52/17 53/74/17 
f 35/52/17 54/75/18 53/74/17 
f 35/52/17 36/54/18 54/75/18 
f 36/54/18 55/76/19 54/75/18 
f 36/54/18 37/56/19 55/76/19 
f 37/56/19 39/59/2 55/76/19 
f 37/56/19 21/22/2 39/59/2 
f 39/59/2 56/77/3 57/78/2 
f 39/59/2 38/58/3 56/77/3 
f 38/58/3 58/79/4 56/77/3 
f 38/58/3 40/60/4 58/79/4 
f 40/60/4 59/80/5 58/79/4 
f 40/60/4 41/61/5 59/80/5 
f 41/61/5 60/81/6 59/80/5 
f 41/61/5 42/62/6 60/81/6 
f 42/64/6 61/82/7 60/83/6 
f 42/64/6 43/63/7 61/82/7 
f 43/63/7 62/84/8 61/82/7 
f 43/63/7 44/65/8 62/84/8 
f 44/65/8 63/85/9 62/84/8 
f 44/65/8 45/66/9 63/85/9 
f 45/66/9 64/86/10 63/85/9 
f 45/66/9 46/67/10 64/86/10 
f 46/67/10 65/87/11 64/86/10 
f 46/67/10 47/68/11 65/87/11 
f 47/68/11 66/88/12 65/87/11 
f 47/68/11 48/69/12 66/88/12 
f 48/69/12 67/89/13 66/88/12 
f 48/69/12 49/70/13 67/89/13 
f 49/70/13 68/90/14 67/89/13 
f 49/70/13 50/71/14 68/90/14 
f 50/71/14 69/91/15 68/90/14 
f 50/71/14 51/72/15 69/91/15 
f 51/72/15 70/92/16 69/91/15 
f 51/72/15 52/73/16 70/92/16 
f 52/73/16 71/93/17 70/92/16 
f 52/73/16 53/74/17 71/93/17 
f 53/74/17 72/94/18 71/93/17 
f 53/74/17 54/75/18 72/94/18 
f 54/75/18 73/95/19 72/94/18 
f 54/75/18 55/76/19 73/95/19 
f 55/76/19 57/78/2 73/95/19 
f 55/76/19 39/59/2 57/78/2 
f 57/78/2 74/96/3 75/97/2 
f 57/78/2 56/77/3 74/96/3 
f 56/77/3 76/98/4 74/96/3 
f 56/77/3 58/79/4 76/98/4 
f 58/79/4 77/99/5 76/98/4 
f 58/79/4 59/80/5 77/99/5 
f 59/80/5 78/100/6 77/99/5 
f 59/80/5 60/81/6 78/100/6 
f 60/83/6 79/101/7 78/102/6 
f 60/83/6 61/82/7 79/101/7 
f 61/82/7 80/103/8 79/101/7 
f 61/82/7 62/84/8 80/103/8 
f 62/84/8 81/104/9 80/103/8 
f 62/84/8 63/85/9 81/104/9 
f 63/85/9 82/105/10 81/104/9 
f 63/85/9 64/86/10 82/105/10 
f 64/86/10 83/106/11 82/105/10 
f 64/86/10 65/87/11 83/106/11 
f 65/87/11 84/107/12 83/106/11 
f 65/87/11 66/88/12 84/107/12 
f 66/88/12 85/108/13 84/107/12 
f 66/88/12 67/89/13 85/108/13 
f 67/89/13 86/109/14 85/108/13 
f 67/89/13 68/90/14 86/109/14 
f 68/90/14 87/110/15 86/109/14 
f 68/90/14 69/91/15 87/110/15 
f 69/91/15 88/111/16 87/110/15 
f 69/91/15 70/92/16 88/111/16 
f 70/92/16 89/112/17 88/111/16 
f 70/92/16 71/93/17 89/112/17 
f 71/93/17 90/113/18 89/112/17 
f 71/93/17 72/94/18 90/113/18 
f 72/94/18 91/114/19 90/113/18 
f 72/94/18 73/95/19 91/114/19 
f 73/95/19 75/97/2 91/114/19 
f 73/95/19 57/78/2 75/97/2 
f 75/97/2 92/115/3 93/116/2 
f 75/97/2 74/96/3 92/115/3 
f 74/96/3 94/117/4 92/115/3 
f 74/96/3 76/98/4 94/117/4 
f 76/98/4 95/118/5 94/117/4 
f 76/98/4 77/99/5 95/118/5 
f 77/99/5 96/119/6 95/118/5 
f 77/99/5 78/100/6 96/119/6 
f 78/102/6 97/120/7 96/121/6 
f 78/102/6 79/101/7 97/120/7 
f 79/101/7 98/122/8 97/120/7 
f 79/101/7 80/103/8 98/122/8 
f 80/103/8 99/123/9 98/122/8 
f 80/103/8 81/104/9 99/123/9 
f 81/104/9 100/124/10 99/123/9 
f 81/104/9 82/105/10 100/124/10 
f 82/105/10 101/125/11 100/124/10 
f 82/105/10 83/106/11 101/125/11 
f 83/106/11 102/126/12 101/125/11 
f 83/106/11 84/107/12 102/126/12 
f 84/107/12 103/127/13 102/126/12 
f 84/107/12 85/108/13 103/127/13 
f 85/108/13 104/128/14 103/127/13 
f 85/108/13 86/109/14 104/128/14 
f 86/109/14 105/129/15 104/128/14 
f 86/109/14 87/110/15 105/129/15 
f 87/110/15 106/130/16 105/129/15 
f 87/110/15 88/111/16 106/130/16 
f 88/111/16 107/131/17 106/130/16 
f 88/111/16 89/112/17 107/131/17 
f 89/112/17 108/132/18 107/131/17 
f 89/112/17 90/113/18 108/132/18 
f 90/113/18 109/133/19 108/132/18 
f 90/113/18 91/114/19 109/133/19 
f 91/114/19 93/116/2 109/133/19 
f 91/114/19 75/97/2 93/116/2 
s 1
f 110/134/20 93/135/20 92/136/20 
f 110/134/20 92/136/20 94/137/20 
f 110/134/20 94/137/20 95/138/20 
f 110/134/20 95/138/20 96/139/20 
f 110/134/20 96/139/20 97/140/20 
f 110/134/20 97/140/20 98/141/20 
f 110/134/20 98/141/20 99/142/20 
f 110/134/20 99/142/20 100/143/20 
f 110/134/20 100/143/20 101/144/20 
f 110/134/20 101/144/20 102/145/20 
f 110/134/20 102/145/20 103/146/20 
f 110/134/20 103/146/20 104/147/20 
f 110/134/20 104/147/20 105/148/20 
f 110/134/20 105/148/20 106/149/20 
f 110/134/20 106/149/20 107/150/20 
f 110/134/20 107/150/20 108/151/20 
f 110/134/20 108/151/20 109/152/20 
f 110/134/20 109/152/20 93/135/20 
# 216 faces

