# 3ds Max Wavefront OBJ Exporter v0.99 - (c)2007 guruware
# File Created: 01.04.2026 18:38:31

mtllib columna_ovalo.mtl

#
# object Cylinder
#

v  0.0000 10.0000 -1.7500
v  0.1951 10.0000 -1.7164
v  0.1951 0.0000 -1.7164
v  0.0000 0.0000 -1.7500
v  0.3827 10.0000 -1.6168
v  0.3827 0.0000 -1.6168
v  0.5556 10.0000 -1.4551
v  0.5556 0.0000 -1.4551
v  0.7071 10.0000 -1.2374
v  0.7071 0.0000 -1.2374
v  0.8315 10.0000 -0.9722
v  0.8315 0.0000 -0.9722
v  0.9239 10.0000 -0.6697
v  0.9239 0.0000 -0.6697
v  0.9808 10.0000 -0.3414
v  0.9808 0.0000 -0.3414
v  1.0000 10.0000 -0.0000
v  1.0000 0.0000 -0.0000
v  0.9808 10.0000 0.3414
v  0.9808 0.0000 0.3414
v  0.9239 10.0000 0.6697
v  0.9239 0.0000 0.6697
v  0.8315 10.0000 0.9722
v  0.8315 0.0000 0.9722
v  0.7071 10.0000 1.2374
v  0.7071 0.0000 1.2374
v  0.5556 10.0000 1.4551
v  0.5556 0.0000 1.4551
v  0.3827 10.0000 1.6168
v  0.3827 0.0000 1.6168
v  0.1951 10.0000 1.7164
v  0.1951 0.0000 1.7164
v  0.0000 10.0000 1.7500
v  0.0000 0.0000 1.7500
v  -0.1951 10.0000 1.7164
v  -0.1951 0.0000 1.7164
v  -0.3827 10.0000 1.6168
v  -0.3827 0.0000 1.6168
v  -0.5556 10.0000 1.4551
v  -0.5556 0.0000 1.4551
v  -0.7071 10.0000 1.2374
v  -0.7071 0.0000 1.2374
v  -0.8315 10.0000 0.9722
v  -0.8315 0.0000 0.9722
v  -0.9239 10.0000 0.6697
v  -0.9239 0.0000 0.6697
v  -0.9808 10.0000 0.3414
v  -0.9808 0.0000 0.3414
v  -1.0000 10.0000 -0.0000
v  -1.0000 0.0000 -0.0000
v  -0.9808 10.0000 -0.3414
v  -0.9808 0.0000 -0.3414
v  -0.9239 10.0000 -0.6697
v  -0.9239 0.0000 -0.6697
v  -0.8315 10.0000 -0.9722
v  -0.8315 0.0000 -0.9722
v  -0.7071 10.0000 -1.2374
v  -0.7071 0.0000 -1.2374
v  -0.5556 10.0000 -1.4551
v  -0.5556 0.0000 -1.4551
v  -0.3827 10.0000 -1.6168
v  -0.3827 0.0000 -1.6168
v  -0.1951 10.0000 -1.7164
v  -0.1951 0.0000 -1.7164
# 64 vertices

vn 0.1699 0.0000 -0.9855
vn 0.4689 0.0000 -0.8833
vn 0.6831 0.0000 -0.7303
vn 0.8207 0.0000 -0.5714
vn 0.9054 0.0000 -0.4246
vn 0.9564 0.0000 -0.2921
vn 0.9853 0.0000 -0.1708
vn 0.9984 0.0000 -0.0562
vn 0.9984 0.0000 0.0562
vn 0.9853 0.0000 0.1708
vn 0.9564 0.0000 0.2921
vn 0.9054 0.0000 0.4246
vn 0.8207 0.0000 0.5714
vn 0.6831 0.0000 0.7303
vn 0.4689 0.0000 0.8833
vn 0.1699 0.0000 0.9855
vn -0.1699 0.0000 0.9855
vn -0.4689 0.0000 0.8833
vn -0.6831 0.0000 0.7303
vn -0.8207 0.0000 0.5714
vn -0.9054 0.0000 0.4246
vn -0.9564 0.0000 0.2921
vn -0.9853 0.0000 0.1708
vn -0.9984 0.0000 0.0562
vn -0.9984 0.0000 -0.0562
vn -0.9853 0.0000 -0.1708
vn -0.9564 0.0000 -0.2921
vn -0.9054 0.0000 -0.4246
vn -0.8207 0.0000 -0.5714
vn -0.6831 0.0000 -0.7303
vn 0.0000 1.0000 -0.0000
vn -0.4689 0.0000 -0.8833
vn -0.1699 0.0000 -0.9855
vn 0.0000 -1.0000 -0.0000
# 34 vertex normals

vt 1.0000 1.0000 1.0000
vt 0.9820 1.0000 0.9871
vt 0.9820 0.0000 0.9871
vt 1.0000 0.0000 1.0000
vt 0.9630 1.0000 0.9494
vt 0.9630 0.0000 0.9494
vt 0.9420 1.0000 0.8900
vt 0.9420 0.0000 0.8900
vt 0.9174 1.0000 0.8144
vt 0.9174 0.0000 0.8144
vt 0.8874 1.0000 0.7310
vt 0.8874 0.0000 0.7310
vt 0.8498 1.0000 0.6520
vt 0.8498 0.0000 0.6520
vt 0.8033 1.0000 0.5934
vt 0.8033 0.0000 0.5934
vt 0.7500 1.0000 0.5714
vt 0.7500 0.0000 0.5714
vt 0.6967 1.0000 0.5934
vt 0.6967 0.0000 0.5934
vt 0.6502 1.0000 0.6520
vt 0.6502 0.0000 0.6520
vt 0.6126 1.0000 0.7310
vt 0.6126 0.0000 0.7310
vt 0.5826 1.0000 0.8144
vt 0.5826 0.0000 0.8144
vt 0.5580 1.0000 0.8900
vt 0.5580 0.0000 0.8900
vt 0.5370 1.0000 0.9494
vt 0.5370 0.0000 0.9494
vt 0.5180 1.0000 0.9871
vt 0.5180 0.0000 0.9871
vt 0.5000 1.0000 1.0000
vt 0.5000 0.0000 1.0000
vt 0.4820 1.0000 0.9871
vt 0.4820 0.0000 0.9871
vt 0.4630 1.0000 0.9494
vt 0.4630 0.0000 0.9494
vt 0.4420 1.0000 0.8900
vt 0.4420 0.0000 0.8900
vt 0.4174 1.0000 0.8144
vt 0.4174 0.0000 0.8144
vt 0.3874 1.0000 0.7310
vt 0.3874 0.0000 0.7310
vt 0.3498 1.0000 0.6520
vt 0.3498 0.0000 0.6520
vt 0.3033 1.0000 0.5934
vt 0.3033 0.0000 0.5934
vt 0.2500 1.0000 0.5714
vt 0.2500 0.0000 0.5714
vt 0.1967 1.0000 0.5934
vt 0.1967 0.0000 0.5934
vt 0.1502 1.0000 0.6520
vt 0.1502 0.0000 0.6520
vt 0.1126 1.0000 0.7310
vt 0.1126 0.0000 0.7310
vt 0.0826 1.0000 0.8144
vt 0.0826 0.0000 0.8144
vt 0.0580 1.0000 0.8900
vt 0.0580 0.0000 0.8900
vt 0.0370 1.0000 0.9494
vt 0.0370 0.0000 0.9494
vt 0.0000 0.5000 0.2500
vt 0.0096 0.4443 0.2500
vt 0.0381 0.3907 0.2500
vt 0.0843 0.3413 0.2500
vt 0.1464 0.2980 0.2500
vt 0.2222 0.2624 0.2500
vt 0.3087 0.2360 0.2500
vt 0.4025 0.2198 0.2500
vt 0.5000 0.2143 0.2500
vt 0.5975 0.2198 0.2500
vt 0.6913 0.2360 0.2500
vt 0.7778 0.2624 0.2500
vt 0.8536 0.2980 0.2500
vt 0.9157 0.3413 0.2500
vt 0.9619 0.3907 0.2500
vt 0.9904 0.4443 0.2500
vt 1.0000 0.5000 0.2500
vt 0.9904 0.5557 0.2500
vt 0.9619 0.6093 0.2500
vt 0.9157 0.6587 0.2500
vt 0.8536 0.7020 0.2500
vt 0.7778 0.7376 0.2500
vt 0.6913 0.7640 0.2500
vt 0.5975 0.7802 0.2500
vt 0.5000 0.7857 0.2500
vt 0.4025 0.7802 0.2500
vt 0.3087 0.7640 0.2500
vt 0.2222 0.7376 0.2500
vt 0.1464 0.7020 0.2500
vt 0.0843 0.6587 0.2500
vt 0.0381 0.6093 0.2500
vt 0.0096 0.5557 0.2500
vt 0.0180 1.0000 0.9871
vt 0.0180 0.0000 0.9871
vt -0.0000 1.0000 1.0000
vt -0.0000 0.0000 1.0000
vt 0.0096 0.5557 -0.2500
vt 0.0381 0.6093 -0.2500
vt 0.0843 0.6587 -0.2500
vt 0.1464 0.7020 -0.2500
vt 0.2222 0.7376 -0.2500
vt 0.3087 0.7640 -0.2500
vt 0.4025 0.7802 -0.2500
vt 0.5000 0.7857 -0.2500
vt 0.5975 0.7802 -0.2500
vt 0.6913 0.7640 -0.2500
vt 0.7778 0.7376 -0.2500
vt 0.8536 0.7020 -0.2500
vt 0.9157 0.6587 -0.2500
vt 0.9619 0.6093 -0.2500
vt 0.9904 0.5557 -0.2500
vt 1.0000 0.5000 -0.2500
vt 0.9904 0.4443 -0.2500
vt 0.9619 0.3907 -0.2500
vt 0.9157 0.3413 -0.2500
vt 0.8536 0.2980 -0.2500
vt 0.7778 0.2624 -0.2500
vt 0.6913 0.2360 -0.2500
vt 0.5975 0.2198 -0.2500
vt 0.5000 0.2143 -0.2500
vt 0.4025 0.2198 -0.2500
vt 0.3087 0.2360 -0.2500
vt 0.2222 0.2624 -0.2500
vt 0.1464 0.2980 -0.2500
vt 0.0843 0.3413 -0.2500
vt 0.0381 0.3907 -0.2500
vt 0.0096 0.4443 -0.2500
vt 0.0000 0.5000 -0.2500
# 130 texture coords

o Cylinder
g Cylinder
usemtl Material_001
s off
f 1/1/1 2/2/1 3/3/1 
f 3/3/1 4/4/1 1/1/1 
f 2/2/2 5/5/2 6/6/2 
f 6/6/2 3/3/2 2/2/2 
f 5/5/3 7/7/3 8/8/3 
f 8/8/3 6/6/3 5/5/3 
f 7/7/4 9/9/4 10/10/4 
f 10/10/4 8/8/4 7/7/4 
f 9/9/5 11/11/5 12/12/5 
f 12/12/5 10/10/5 9/9/5 
f 11/11/6 13/13/6 14/14/6 
f 14/14/6 12/12/6 11/11/6 
f 13/13/7 15/15/7 16/16/7 
f 16/16/7 14/14/7 13/13/7 
f 15/15/8 17/17/8 18/18/8 
f 18/18/8 16/16/8 15/15/8 
f 17/17/9 19/19/9 20/20/9 
f 20/20/9 18/18/9 17/17/9 
f 19/19/10 21/21/10 22/22/10 
f 22/22/10 20/20/10 19/19/10 
f 21/21/11 23/23/11 24/24/11 
f 24/24/11 22/22/11 21/21/11 
f 23/23/12 25/25/12 26/26/12 
f 26/26/12 24/24/12 23/23/12 
f 25/25/13 27/27/13 28/28/13 
f 28/28/13 26/26/13 25/25/13 
f 27/27/14 29/29/14 30/30/14 
f 30/30/14 28/28/14 27/27/14 
f 29/29/15 31/31/15 32/32/15 
f 32/32/15 30/30/15 29/29/15 
f 31/31/16 33/33/16 34/34/16 
f 34/34/16 32/32/16 31/31/16 
f 33/33/17 35/35/17 36/36/17 
f 36/36/17 34/34/17 33/33/17 
f 35/35/18 37/37/18 38/38/18 
f 38/38/18 36/36/18 35/35/18 
f 37/37/19 39/39/19 40/40/19 
f 40/40/19 38/38/19 37/37/19 
f 39/39/20 41/41/20 42/42/20 
f 42/42/20 40/40/20 39/39/20 
f 41/41/21 43/43/21 44/44/21 
f 44/44/21 42/42/21 41/41/21 
f 43/43/22 45/45/22 46/46/22 
f 46/46/22 44/44/22 43/43/22 
f 45/45/23 47/47/23 48/48/23 
f 48/48/23 46/46/23 45/45/23 
f 47/47/24 49/49/24 50/50/24 
f 50/50/24 48/48/24 47/47/24 
f 49/49/25 51/51/25 52/52/25 
f 52/52/25 50/50/25 49/49/25 
f 51/51/26 53/53/26 54/54/26 
f 54/54/26 52/52/26 51/51/26 
f 53/53/27 55/55/27 56/56/27 
f 56/56/27 54/54/27 53/53/27 
f 55/55/28 57/57/28 58/58/28 
f 58/58/28 56/56/28 55/55/28 
f 57/57/29 59/59/29 60/60/29 
f 60/60/29 58/58/29 57/57/29 
f 59/59/30 61/61/30 62/62/30 
f 62/62/30 60/60/30 59/59/30 
f 1/63/31 63/64/31 61/65/31 
f 61/65/31 59/66/31 57/67/31 
f 57/67/31 55/68/31 53/69/31 
f 61/65/31 57/67/31 53/69/31 
f 53/69/31 51/70/31 49/71/31 
f 49/71/31 47/72/31 45/73/31 
f 53/69/31 49/71/31 45/73/31 
f 45/73/31 43/74/31 41/75/31 
f 41/75/31 39/76/31 37/77/31 
f 45/73/31 41/75/31 37/77/31 
f 53/69/31 45/73/31 37/77/31 
f 37/77/31 35/78/31 33/79/31 
f 33/79/31 31/80/31 29/81/31 
f 37/77/31 33/79/31 29/81/31 
f 29/81/31 27/82/31 25/83/31 
f 25/83/31 23/84/31 21/85/31 
f 29/81/31 25/83/31 21/85/31 
f 37/77/31 29/81/31 21/85/31 
f 53/69/31 37/77/31 21/85/31 
f 21/85/31 19/86/31 17/87/31 
f 17/87/31 15/88/31 13/89/31 
f 21/85/31 17/87/31 13/89/31 
f 13/89/31 11/90/31 9/91/31 
f 9/91/31 7/92/31 5/93/31 
f 13/89/31 9/91/31 5/93/31 
f 21/85/31 13/89/31 5/93/31 
f 53/69/31 21/85/31 5/93/31 
f 61/65/31 53/69/31 5/93/31 
f 1/63/31 61/65/31 5/93/31 
f 2/94/31 1/63/31 5/93/31 
f 61/61/32 63/95/32 64/96/32 
f 64/96/32 62/62/32 61/61/32 
f 63/95/33 1/97/33 4/98/33 
f 4/98/33 64/96/33 63/95/33 
f 3/99/34 6/100/34 8/101/34 
f 8/101/34 10/102/34 12/103/34 
f 12/103/34 14/104/34 16/105/34 
f 8/101/34 12/103/34 16/105/34 
f 16/105/34 18/106/34 20/107/34 
f 20/107/34 22/108/34 24/109/34 
f 16/105/34 20/107/34 24/109/34 
f 24/109/34 26/110/34 28/111/34 
f 28/111/34 30/112/34 32/113/34 
f 24/109/34 28/111/34 32/113/34 
f 16/105/34 24/109/34 32/113/34 
f 32/113/34 34/114/34 36/115/34 
f 36/115/34 38/116/34 40/117/34 
f 32/113/34 36/115/34 40/117/34 
f 40/117/34 42/118/34 44/119/34 
f 44/119/34 46/120/34 48/121/34 
f 40/117/34 44/119/34 48/121/34 
f 32/113/34 40/117/34 48/121/34 
f 16/105/34 32/113/34 48/121/34 
f 48/121/34 50/122/34 52/123/34 
f 52/123/34 54/124/34 56/125/34 
f 48/121/34 52/123/34 56/125/34 
f 56/125/34 58/126/34 60/127/34 
f 60/127/34 62/128/34 64/129/34 
f 56/125/34 60/127/34 64/129/34 
f 48/121/34 56/125/34 64/129/34 
f 16/105/34 48/121/34 64/129/34 
f 8/101/34 16/105/34 64/129/34 
f 3/99/34 8/101/34 64/129/34 
f 4/130/34 3/99/34 64/129/34 
# 124 faces

